<svg id="Capa_1" enable-background="new 0 0 512 512" height="512" viewBox="0 0 512 512" width="512" xmlns="http://www.w3.org/2000/svg"><g><path d="m281.649 512v-186.71h-16.037v112.08c-31.292-2.128-56.105-28.248-56.105-60.071h-29.94c0 48.337 38.233 87.906 86.045 90.069v44.632z" fill="#a14f42"/><path d="m357.785 325.29c-1.477 33.744-28.545 60.957-62.234 62.652v-62.652h-14.705v186.71h14.705v-94.099c50.2-1.731 90.689-42.356 92.196-92.611z" fill="#873f30"/><path d="m414.416 128.735c-3.488-32.73-17.951-63.05-41.578-86.612-27.237-27.164-63.422-42.123-101.889-42.123-72.622 0-134.171 54.267-143.169 126.23-.566 4.526-.903 15.454-1.086 23.825l153.11 185.886 128.606-.197c57.12 0 103.59-46.47 103.59-103.59 0-55.105-43.247-100.299-97.584-103.419z" fill="#19a995"/><path d="m414.416 128.735c-3.488-32.73-17.951-63.05-41.578-86.612-24.653-24.587-56.637-39.173-91.009-41.72v335.535l126.581-.194c57.12 0 103.59-46.47 103.59-103.59 0-55.105-43.247-100.299-97.584-103.419z" fill="#0d7579"/><g><path d="m155.994 127.585c-41.739 13.825-73.147 50.676-79.027 95.413-43.083 3.848-76.967 40.149-76.967 84.216 0 46.614 37.919 84.539 84.53 84.554l71.464.109z" fill="#97de3d"/></g><g><path d="m308.967 235.633c-.671-30.577-13.084-59.216-34.955-80.641-21.905-21.459-50.858-33.277-81.527-33.277-13.842 0-27.129 2.442-39.463 6.904v263.252l25.63.039h.206c34.715-.001 67.358-13.505 91.93-38.04 24.622-24.584 38.182-57.285 38.182-92.079v-25.832z" fill="#59c36a"/></g></g></svg>