<svg id="Capa_1" enable-background="new 0 0 512 512" height="512" viewBox="0 0 512 512" width="512" xmlns="http://www.w3.org/2000/svg"><g><g><path d="m482.84 374.743c19.145-36.481 29.16-77.551 29.16-118.743 0-5.522-4.477-10-10-10h-26.65c1.995-6.584 5.896-12.398 11.125-16.44 4.771-2.765 6.404-8.872 3.645-13.65-2.762-4.782-8.879-6.42-13.66-3.66h-.001-.001c-.488.281-6.781 4.012-12.602 11.953-5.821-7.941-12.114-11.672-12.602-11.953v.001l-.001-.001c-4.781-2.76-10.898-1.122-13.66 3.66-2.758 4.778-1.125 10.885 3.645 13.65 5.31 3.952 9.195 9.801 11.163 16.44h-85.742v-15.09h2.631c26.237 0 48.556-19.599 51.916-45.578.074-.567.345-1.07.771-1.421 12.102-9.993 19.043-24.715 19.043-40.391 0-20.686-12.224-39.479-31.138-47.878-.509-.227-.864-.934-.862-1.72 0-.008 0-.104 0-.112 0-14.317-5.671-27.687-15.968-37.644-10.297-9.956-23.874-15.181-38.211-14.691-13.902.473-26.807 6.473-36.146 16.331-1.676-32.019-28.604-57.793-60.868-57.806-.009 0-.017 0-.026 0-16.288 0-31.603 6.341-43.123 17.856-10.925 10.92-17.188 25.256-17.813 40.599-9.375-10.24-22.526-16.49-36.76-16.98-14.335-.48-27.91 4.735-38.208 14.691-10.297 9.957-15.968 23.326-15.968 37.644v.11c.001.801-.342 1.49-.859 1.72-18.912 8.398-31.131 27.192-31.131 47.88 0 15.681 6.937 30.402 19.04 40.396.419.346.69.848.763 1.405 3.361 25.989 25.681 45.588 51.917 45.588h2.633v15.091h-.063-88.005c1.995-6.584 5.896-12.398 11.125-16.44 4.771-2.765 6.404-8.872 3.645-13.65-2.762-4.782-8.879-6.42-13.66-3.66 0 0-.001 0-.001.001v-.001c-.488.281-6.781 4.012-12.602 11.953-5.821-7.941-12.114-11.672-12.602-11.953v.001l-.001-.001c-4.781-2.76-10.898-1.122-13.66 3.66-2.758 4.778-1.125 10.885 3.645 13.65 5.31 3.952 9.195 9.801 11.163 16.44h-27.276c-5.523 0-10 4.478-10 10 0 68.38 26.628 132.667 74.98 181.02 48.353 48.351 112.64 74.98 181.02 74.98 17.209 0 34.427-1.724 51.176-5.123 5.412-1.098 8.909-6.376 7.811-11.789-1.099-5.412-6.373-8.914-11.789-7.811-15.442 3.134-31.322 4.723-47.198 4.723-45.653 0-89.322-12.884-126.87-36.917v-80.773c0-6.594-2.569-12.805-7.25-17.504l-19.48-19.467c-4.675-4.675-10.89-7.249-17.5-7.249h-53.089c-6.754-20.505-10.691-42.026-11.604-64.09h118.023v28.896c0 10.411 4.055 20.2 11.417 27.564l33.522 33.521c3.585 3.586 5.56 8.354 5.56 13.424v34.052c0 21.495 17.488 38.983 38.983 38.983h51.488c6.515 0 12.894-2.643 17.501-7.249l44.912-44.912c7.363-7.363 11.417-17.152 11.417-27.564v-58.364c0-6.532-2.647-12.917-7.249-17.502l-20.849-20.849h166.856c-.681 16.068-3.008 31.986-6.891 47.49h-45.547c-14.066 0-25.51 11.443-25.51 25.51v13.42c0 6.719 2.722 13.295 7.469 18.042l25.027 25.027c-17.813 24.239-40.187 45.051-65.8 60.996-4.688 2.919-6.123 9.086-3.204 13.774 2.918 4.688 9.084 6.123 13.774 3.204 38.589-24.024 70.626-58.456 91.734-98.72zm-397.94-24.653c1.269 0 2.462.494 3.361 1.394l19.464 19.454c.893.896 1.405 2.125 1.405 3.373v66.413c-30.121-24.046-54.241-55.425-69.617-90.634zm261.759-104.09h-78.859v-22.014h5.202c12.022 0 23.317-3.531 32.849-9.639 9.805 10.402 23.655 16.563 38.179 16.563h2.628v15.09zm8.857-184.536c8.884-.305 17.268 2.927 23.633 9.081 6.365 6.155 9.871 14.418 9.871 23.333-.019 8.726 4.98 16.591 12.741 20.042 11.699 5.194 19.259 16.813 19.259 29.601 0 9.688-4.293 18.788-11.77 24.963-4.348 3.583-7.145 8.648-7.877 14.274-2.076 16.049-15.868 28.152-32.083 28.152h-2.631v-16.926c0-5.522-4.477-10-10-10s-10 4.478-10 10v16.926h-2.628c-8.982 0-17.298-3.608-23.325-9.906 6.94-8.714 11.438-19.341 12.818-30.397.119-.96.611-1.913 1.363-2.528 16.552-13.527 24.94-35.241 21.725-56.385-2.37-15.959-10.869-30.163-23.765-39.744 5.803-6.329 13.924-10.188 22.669-10.486zm-138.712-.363c-.124-22.403 18.67-41.101 41.014-41.101 22.085.01 40.462 17.97 40.967 40.037.241 10.105 4.828 19.092 14.384 23.409 20.593 9.303 29.899 34.511 20.193 54.961-2.572 5.416-6.343 10.268-11.136 14.186-4.707 3.854-7.798 9.502-8.551 15.535-2.52 20.193-20.296 35.858-40.673 35.858h-5.202v-25.243l30.2-30.201c3.905-3.905 3.905-10.237 0-14.143-3.905-3.904-10.237-3.904-14.142 0l-16.058 16.059v-60.356c0-5.522-4.477-10-10-10s-10 4.478-10 10v24.613l-4.401-4.401c-3.906-3.903-10.237-3.904-14.142 0-3.905 3.905-3.906 10.237 0 14.143l18.543 18.543v60.986h-5.201c-20.37-.001-38.151-15.639-40.673-35.858-.753-6.034-3.847-11.685-8.558-15.541-3.593-2.937-6.612-6.4-8.982-10.233-12.807-20.727-4.12-48.892 18.043-58.906 8.752-3.957 14.394-12.737 14.375-22.347zm-71.144 149.809c-16.214 0-30.007-12.104-32.084-28.163-.732-5.616-3.53-10.682-7.869-14.258-7.479-6.176-11.768-15.276-11.768-24.969 0-12.789 7.556-24.408 19.245-29.599 7.761-3.443 12.764-11.31 12.746-20.111 0-8.848 3.505-17.11 9.871-23.266 6.095-5.894 14.048-9.101 22.498-9.101 9.142 0 17.99 3.994 24.081 10.805-14.117 10.664-22.963 27.375-23.972 45.019-1.111 19.426 7.23 38.489 22.306 50.809.747.611 1.245 1.581 1.364 2.535 1.364 10.893 5.751 21.349 12.514 29.99-6.065 6.479-14.642 10.308-23.671 10.308h-2.626v-16.926c0-5.522-4.477-10-10-10s-10 4.478-10 10v16.926h-2.635zm22.633 20h2.626c14.679 0 28.611-6.256 38.425-16.821 9.616 6.268 21.062 9.896 33.253 9.897h5.202v22.014h-79.507v-15.09zm163.359 70.094c.876.873 1.378 2.093 1.378 3.347v58.364c0 5.07-1.975 9.838-5.56 13.423l-44.912 44.911c-.884.885-2.108 1.392-3.358 1.392h-51.487c-10.467 0-18.983-8.516-18.983-18.983v-34.052c0-10.412-4.055-20.201-11.417-27.565l-33.522-33.521c-3.585-3.586-5.56-8.354-5.56-13.423v-28.897h138.418zm103.799 55.315c-1.024-1.023-1.611-2.445-1.611-3.899v-13.42c0-3.038 2.472-5.51 5.51-5.51h39.588c-5.453 15.724-12.574 30.868-21.236 45.081z"/><path d="m355.38 481.13c-2.094-5.031-8.019-7.497-13.06-5.41s-7.477 8.033-5.4 13.06c2.082 5.038 8.013 7.49 13.05 5.41 5.054-2.088 7.475-8.017 5.41-13.06z"/></g></g></svg>
