<svg height="512" viewBox="0 0 512 512" width="512" xmlns="http://www.w3.org/2000/svg"><path d="m104 264h80a0 0 0 0 1 0 0 64 64 0 0 1 -64 64h-16a0 0 0 0 1 0 0v-64a0 0 0 0 1 0 0z" fill="#c42618"/><path d="m224 264h80a0 0 0 0 1 0 0 64 64 0 0 1 -64 64h-16a0 0 0 0 1 0 0v-64a0 0 0 0 1 0 0z" fill="#c42618"/><path d="m304 264h64a0 0 0 0 1 0 0 64 64 0 0 1 -64 64 0 0 0 0 1 0 0v-64a0 0 0 0 1 0 0z" fill="#c42618"/><path d="m156 191.333-15.457-37.521a15.838 15.838 0 0 0 3.457-9.812 16 16 0 1 0 -18.312 15.766l15.453 37.513z" fill="#7a432a"/><path d="m104 144a16 16 0 1 0 -18.312 15.766l15.453 38.179 14.859-5.945-15.457-38.188a15.838 15.838 0 0 0 3.457-9.812z" fill="#7a432a"/><path d="m50.344 226.344-32 32 11.312 11.312 29.656-29.656h48.688v-16h-52a7.994 7.994 0 0 0 -5.656 2.344z" fill="#7a432a"/><path d="m51.312 208h30.688v-16h-34a7.994 7.994 0 0 0 -5.656 2.344l-32 32 11.312 11.312z" fill="#7a432a"/><path d="m104 264a79.957 79.957 0 0 0 -72.852 47.071l72.852 40.748z" fill="#de4132"/><path d="m104 351.819-72.852-40.748a79.6 79.6 0 0 0 -7.148 32.929v64a80.064 80.064 0 0 0 80 80h8l-40-64v-32h40v-6.112a75.778 75.778 0 0 0 -8-33.888z" fill="#ea4a3b"/><path d="m72 392v32l40 64v-96z" fill="#d43324"/><path d="m368 264h-248l-64-80h232a80 80 0 0 1 80 80z" fill="#de4132"/><path d="m257.941 184h-19.561l56.218 80h19.561z" fill="#cf3b2e"/><path d="m160 184h88a0 0 0 0 1 0 0 48 48 0 0 1 -48 48h-40a0 0 0 0 1 0 0v-48a0 0 0 0 1 0 0z" fill="#ea4a3b"/><path d="m160 184h-16a24 24 0 0 0 -24 24v24h40z" fill="#f35244"/><path d="m200 232h-40v32h32a32 32 0 0 0 32-32v-8z" fill="#f35244"/><path d="m120 232v8a24 24 0 0 0 24 24h16v-32z" fill="#ea4a3b"/><path d="m48 352h16v16h-16z" fill="#d43324"/><path d="m304 408v32a47.953 47.953 0 0 1 -48 48h-32a79.992 79.992 0 0 1 -73.3-48h129.3z" fill="#de4132"/><path d="m304 440a48.018 48.018 0 0 1 -36.41 46.59c-27.15-7.97-43.87-25.95-52.9-46.59z" fill="#d43324"/><path d="m144 344v64a79.66 79.66 0 0 0 6.7 32h73.3v-48l-78.568-62.854a80.231 80.231 0 0 0 -1.432 14.854z" fill="#ea4a3b"/><path d="m145.432 329.146 78.568 62.854v-128a79.984 79.984 0 0 0 -78.568 65.146z" fill="#de4132"/><path d="m304 440h-73.3a79.987 79.987 0 0 0 73.3 48h32a48 48 0 0 0 48-48v-32l-24 32z" fill="#de4132"/><path d="m224 344v64a79.66 79.66 0 0 0 6.7 32h73.3v-48l-78.568-62.854a80.231 80.231 0 0 0 -1.432 14.854z" fill="#ea4a3b"/><path d="m225.432 329.146 78.568 62.854v-128a79.984 79.984 0 0 0 -78.568 65.146z" fill="#de4132"/><path d="m168 384h16v16h-16z" fill="#d43324"/><path d="m184 304h16v16h-16z" fill="#f35244"/><path d="m264 400h16v16h-16z" fill="#d43324"/><path d="m488 152a38.633 38.633 0 0 1 -11.31 27.31l-140.68 140.7-144.01-144.01 140.69-140.69a38.629 38.629 0 0 1 54.62 0l89.38 89.38a38.633 38.633 0 0 1 11.31 27.31z" fill="#4db7e5"/><path d="m488 152a38.633 38.633 0 0 1 -11.31 27.31l-140.68 140.7-118.01-118.01c72.33-5.46 179.37-23.27 257.57-78.43l1.12 1.12a38.633 38.633 0 0 1 11.31 27.31z" fill="#48add9"/><path d="m257.373 107.549h45.255v248.902h-45.255z" fill="#4db7e5" transform="matrix(.707 -.707 .707 .707 -82.039 265.941)"/><g fill="#3b9dc7"><path d="m290.46 140.001h147.073v15.998h-147.073z" transform="matrix(.707 -.707 .707 .707 1.96 300.732)"/><path d="m314.46 164.001h147.073v15.998h-147.073z" transform="matrix(.707 -.707 .707 .707 -7.981 324.732)"/><path d="m338.46 188.001h147.073v15.998h-147.073z" transform="matrix(.707 -.707 .707 .707 -17.922 348.732)"/><path d="m266.46 116.001h147.073v15.998h-147.073z" transform="matrix(.707 -.707 .707 .707 11.901 276.732)"/><path d="m242.46 92.001h147.073v15.998h-147.073z" transform="matrix(.707 -.707 .707 .707 21.842 252.732)"/></g><path d="m264 320h16v16h-16z" fill="#f35244"/></svg>